<svg width="39" height="48" viewBox="0 0 39 48" fill="none" xmlns="http://www.w3.org/2000/svg">
<g clip-path="url(#clip0_4080_3996)">
<path d="M15.5688 46.2635C7.90104 44.6551 1.54642 37.9184 0.514677 30.3192C0.186395 27.8483 0.397433 24.4449 1.03055 22.2305C2.69542 16.4029 7.92449 11.0648 13.7632 9.26987C15.686 8.68711 15.897 8.96684 14.9123 10.9249C14.2088 12.3702 14.0916 12.4634 12.4736 13.256C6.98655 15.8668 3.60991 21.2981 3.58646 27.4987C3.58646 28.7341 3.7506 30.2959 3.96165 31.2283C4.50097 33.4196 6.04859 36.4266 7.33828 37.8718L8.41693 39.0607L10.7383 38.6643C12.497 38.3614 13.8571 38.2914 16.4832 38.3847C20.3289 38.5244 22.58 38.9907 25.9098 40.3194L27.9732 41.1585L29.0049 40.4359C31.5844 38.6876 34.1168 35.0047 35.0547 31.6713C35.5706 29.853 35.5002 24.5382 34.9375 22.9298C33.3898 18.4541 30.5057 15.0509 26.7305 13.2793C26.027 12.9529 25.3938 12.58 25.3236 12.4867C25.2531 12.3935 25.3469 11.7175 25.4876 11.0415C25.6986 10.179 25.9098 9.73608 26.1676 9.68946C26.8008 9.5729 30.107 11.3911 31.7954 12.7898C34.703 15.1674 37.212 19.037 38.2437 22.6966C38.5487 23.8389 38.6659 25.0744 38.6659 27.592C38.6659 30.4824 38.572 31.2283 38.103 32.7201C35.0079 42.534 25.3938 48.3149 15.5688 46.2635Z" fill="white"/>
<path d="M18.0315 37.1261C17.1404 37.0096 15.499 36.6832 14.3969 36.4268C12.1693 35.8906 7.54989 34.0491 7.10435 33.513C6.91676 33.2798 6.86986 32.6505 6.98711 31.3451L7.15125 29.4803L6.2602 29.4103L5.36914 29.3404L5.43949 27.662C5.48638 26.7296 5.58018 25.5408 5.67399 24.9813C5.86157 23.9789 5.86157 23.9789 6.79952 24.0256L7.76092 24.0489L8.04231 21.578C8.20645 20.2027 8.39403 19.0138 8.48783 18.9207C8.81611 18.5943 11.5362 18.0116 13.9983 17.7318C16.3432 17.4753 16.5072 17.4287 16.5072 16.9392C16.5072 16.2866 16.8122 16.1234 17.9143 16.1234L18.8288 16.1467L19.5322 14.0254L20.2357 11.9275L18.5238 12.0907C17.4453 12.1839 16.7419 12.1606 16.648 11.9974C16.5072 11.7876 21.2206 1.60096 21.6895 1.13475C21.8301 1.0182 21.9943 1.0182 22.135 1.15806C22.2758 1.29792 22.0413 2.67324 21.5488 4.95767C21.1033 6.93905 20.7281 8.64072 20.7281 8.75727C20.7281 8.85051 21.4081 8.94375 22.2523 8.94375C23.3778 8.94375 23.8234 9.037 23.9172 9.2701C23.9874 9.45658 23.7062 11.1116 23.3075 12.9065C22.8853 14.7248 22.6275 16.2866 22.7213 16.3565C22.815 16.4498 23.3075 16.6128 23.8467 16.7527C24.7613 16.9626 24.8316 17.0325 24.7847 17.7085C24.7144 18.4078 24.7613 18.4311 26.1916 18.8274C27.9034 19.2936 31.8662 20.9953 32.1711 21.3683C32.3118 21.5313 32.3118 22.2541 32.1946 23.1631C32.1007 24.0022 31.9601 25.1212 31.8897 25.6573L31.7724 26.6363L32.6401 26.7063L33.5077 26.7762L33.4373 29.2005C33.367 31.9745 33.2028 32.3474 32.0539 32.1377C31.1862 31.9745 31.1862 32.0211 30.9517 34.3288C30.8814 35.0281 30.6938 35.7507 30.5297 35.9139C29.5918 36.8464 21.6191 37.6156 18.0315 37.1261ZM24.5268 33.3964C25.8633 33.2565 27.0358 33.0701 27.1297 32.9769C27.2937 32.8137 28.2317 25.3543 28.2317 24.0722C28.2317 23.5361 28.0441 23.4195 26.4261 22.8601C23.4482 21.8577 21.7364 21.5313 18.5005 21.3683C15.9915 21.2517 12.2162 21.5313 11.8879 21.8344C11.7707 21.9743 10.8562 30.9255 10.95 31.2053C11.1375 31.6481 15.546 32.9536 18.0784 33.3031C21.0329 33.6995 21.6191 33.6995 24.5268 33.3964Z" fill="white"/>
<path d="M23.7757 28.6408L23.2363 28.0581L22.4391 28.5476C21.7121 29.0139 21.6184 29.0139 21.0791 28.6642C20.188 28.0814 20.3287 27.3122 21.4777 26.3331C22.8846 25.1444 23.7757 25.1677 24.9716 26.473C25.9798 27.5687 26.1206 28.2446 25.4641 28.8274C24.8544 29.3634 24.4089 29.3168 23.7757 28.6408Z" fill="white"/>
<path d="M16.5084 27.9182C15.8283 27.3355 15.758 27.3355 15.3593 27.6852C14.8435 28.1514 13.8351 28.1747 13.4834 27.7318C12.9441 27.1025 13.2958 26.1934 14.3276 25.4241C15.6876 24.4684 16.5552 24.515 17.7042 25.6338C18.8533 26.7295 18.9705 27.2656 18.267 27.9648C17.5636 28.6643 17.4229 28.6643 16.5084 27.9182Z" fill="white"/>
</g>
<defs>
<clipPath id="clip0_4080_3996">
<rect width="38.6667" height="48" fill="white"/>
</clipPath>
</defs>
</svg>
