<svg width="1044" height="558" viewBox="0 0 1044 558" fill="none" xmlns="http://www.w3.org/2000/svg">
<g opacity="0.4">
<rect x="242.814" width="557.698" height="557.698" rx="278.849" fill="url(#paint0_linear_6001_4013)"/>
<rect x="243.292" y="0.477481" width="556.743" height="556.743" rx="278.372" stroke="#757575" stroke-opacity="0.7" stroke-width="0.954962"/>
</g>
<g filter="url(#filter0_d_6001_4013)">
<path d="M487.893 278.382H555.433V210.841H487.893V278.382Z" fill="#FB8167"/>
<rect x="395.023" y="151.743" width="253.278" height="253.278" rx="126.639" fill="url(#paint1_linear_6001_4013)"/>
<g clip-path="url(#clip0_6001_4013)">
<path d="M505.241 350.383C476.082 344.266 451.917 318.648 447.993 289.75C446.745 280.353 447.547 267.411 449.955 258.99C456.286 236.829 476.171 216.529 498.375 209.703C505.687 207.487 506.489 208.551 502.745 215.997C500.07 221.493 499.624 221.847 493.471 224.861C472.605 234.79 459.764 255.444 459.675 279.024C459.675 283.722 460.299 289.661 461.102 293.207C463.152 301.54 469.038 312.975 473.942 318.471L478.044 322.992L486.872 321.485C493.56 320.333 498.732 320.067 508.719 320.421C523.343 320.953 531.904 322.726 544.566 327.778L552.413 330.97L556.336 328.222C566.145 321.573 575.776 307.568 579.342 294.891C581.304 287.977 581.037 267.766 578.897 261.649C573.011 244.629 562.043 231.687 547.687 224.95C545.012 223.709 542.604 222.291 542.337 221.936C542.069 221.582 542.425 219.011 542.961 216.44C543.763 213.16 544.566 211.476 545.546 211.299C547.954 210.855 560.527 217.77 566.948 223.089C578.005 232.13 587.546 246.846 591.47 260.763C592.629 265.106 593.075 269.805 593.075 279.378C593.075 290.37 592.718 293.207 590.935 298.88C579.164 336.2 542.604 358.184 505.241 350.383Z" fill="white"/>
<path d="M514.604 315.635C511.215 315.191 504.973 313.95 500.782 312.976C492.311 310.936 474.744 303.933 473.05 301.895C472.336 301.008 472.158 298.615 472.604 293.651L473.228 286.559L469.84 286.293L466.451 286.027L466.719 279.645C466.897 276.099 467.254 271.578 467.61 269.45C468.324 265.638 468.324 265.638 471.891 265.816L475.547 265.904L476.617 256.508C477.241 251.278 477.954 246.757 478.311 246.403C479.559 245.162 489.903 242.946 499.266 241.882C508.183 240.907 508.807 240.729 508.807 238.868C508.807 236.386 509.967 235.765 514.158 235.765L517.636 235.854L520.311 227.787L522.986 219.809L516.476 220.43C512.375 220.784 509.699 220.696 509.342 220.075C508.807 219.277 526.731 180.539 528.515 178.766C529.049 178.323 529.674 178.323 530.209 178.855C530.744 179.387 529.852 184.617 527.979 193.304C526.285 200.839 524.858 207.31 524.858 207.753C524.858 208.108 527.444 208.463 530.655 208.463C534.934 208.463 536.629 208.817 536.986 209.704C537.253 210.413 536.183 216.707 534.667 223.532C533.062 230.447 532.081 236.386 532.438 236.652C532.795 237.007 534.667 237.627 536.718 238.159C540.196 238.957 540.463 239.223 540.285 241.793C540.017 244.452 540.196 244.541 545.635 246.048C552.145 247.821 567.214 254.292 568.374 255.711C568.909 256.331 568.909 259.079 568.463 262.536C568.106 265.727 567.571 269.982 567.304 272.021L566.858 275.744L570.157 276.01L573.457 276.276L573.189 285.495C572.922 296.044 572.297 297.462 567.928 296.665C564.629 296.044 564.629 296.221 563.737 304.997C563.47 307.656 562.756 310.404 562.132 311.025C558.565 314.571 528.247 317.496 514.604 315.635ZM539.304 301.451C544.387 300.919 548.845 300.211 549.202 299.856C549.826 299.235 553.393 270.869 553.393 265.993C553.393 263.954 552.68 263.511 546.527 261.384C535.202 257.572 528.693 256.331 516.387 255.711C506.846 255.267 492.489 256.331 491.241 257.483C490.795 258.015 487.317 292.055 487.674 293.119C488.387 294.803 505.152 299.767 514.782 301.097C526.017 302.604 528.247 302.604 539.304 301.451Z" fill="white"/>
<path d="M536.453 283.366L534.402 281.15L531.37 283.012C528.606 284.785 528.249 284.785 526.198 283.455C522.81 281.239 523.345 278.314 527.714 274.59C533.064 270.07 536.453 270.158 541.001 275.122C544.835 279.289 545.37 281.859 542.873 284.075C540.555 286.114 538.861 285.937 536.453 283.366Z" fill="white"/>
<path d="M508.811 280.618C506.225 278.402 505.958 278.402 504.442 279.732C502.48 281.505 498.646 281.593 497.308 279.909C495.257 277.516 496.595 274.059 500.518 271.134C505.69 267.499 508.989 267.676 513.359 271.931C517.728 276.097 518.174 278.136 515.499 280.795C512.824 283.455 512.289 283.455 508.811 280.618Z" fill="white"/>
</g>
</g>
<rect x="181.5" y="221.5" width="123.145" height="123.145" rx="61.5726" fill="#3F3F40" stroke="#646464"/>
<g clip-path="url(#clip1_6001_4013)">
<path d="M264.252 263.096C260.357 261.309 256.18 259.992 251.812 259.238C251.732 259.223 251.653 259.259 251.612 259.332C251.075 260.288 250.48 261.534 250.063 262.514C245.365 261.811 240.692 261.811 236.091 262.514C235.674 261.512 235.057 260.288 234.517 259.332C234.476 259.262 234.397 259.225 234.318 259.238C229.952 259.989 225.775 261.306 221.877 263.096C221.843 263.111 221.815 263.135 221.795 263.166C213.872 275.004 211.701 286.55 212.766 297.953C212.771 298.009 212.802 298.063 212.846 298.096C218.073 301.935 223.137 304.266 228.107 305.811C228.187 305.835 228.271 305.806 228.321 305.741C229.497 304.135 230.545 302.442 231.444 300.662C231.497 300.558 231.446 300.434 231.338 300.393C229.675 299.763 228.093 298.994 226.57 298.121C226.45 298.05 226.44 297.878 226.551 297.796C226.871 297.556 227.192 297.306 227.498 297.054C227.553 297.008 227.63 296.998 227.695 297.027C237.697 301.594 248.526 301.594 258.41 297.027C258.475 296.995 258.553 297.005 258.61 297.051C258.916 297.303 259.237 297.556 259.56 297.796C259.67 297.878 259.663 298.05 259.543 298.121C258.02 299.011 256.437 299.763 254.773 300.391C254.664 300.432 254.616 300.558 254.669 300.662C255.587 302.44 256.635 304.133 257.789 305.738C257.837 305.806 257.924 305.835 258.003 305.811C262.997 304.266 268.061 301.935 273.289 298.096C273.334 298.063 273.363 298.012 273.368 297.956C274.642 284.772 271.234 273.321 264.332 263.169C264.315 263.135 264.286 263.111 264.252 263.096ZM232.937 291.01C229.926 291.01 227.445 288.245 227.445 284.85C227.445 281.455 229.878 278.69 232.937 278.69C236.021 278.69 238.478 281.479 238.43 284.85C238.43 288.245 235.997 291.01 232.937 291.01ZM253.245 291.01C250.234 291.01 247.753 288.245 247.753 284.85C247.753 281.455 250.186 278.69 253.245 278.69C256.329 278.69 258.786 281.479 258.738 284.85C258.738 288.245 256.329 291.01 253.245 291.01Z" fill="white"/>
</g>
<rect x="919.5" y="221.5" width="123.145" height="123.145" rx="61.5726" fill="#303031" stroke="#484848"/>
<path d="M950.514 313.631L954.81 297.937C952.159 293.343 950.766 288.135 950.768 282.795C950.776 266.1 964.362 252.514 981.055 252.514C989.155 252.516 996.759 255.671 1002.48 261.396C1008.2 267.121 1011.34 274.73 1011.34 282.823C1011.33 299.521 997.747 313.107 981.055 313.107C975.987 313.104 970.993 311.833 966.57 309.419L950.514 313.631ZM967.313 303.936C971.581 306.47 975.656 307.988 981.044 307.991C994.918 307.991 1006.22 296.699 1006.23 282.818C1006.23 268.908 994.984 257.632 981.065 257.627C967.181 257.627 955.887 268.919 955.882 282.797C955.879 288.464 957.54 292.706 960.328 297.145L957.784 306.435L967.313 303.936ZM996.311 290.022C996.123 289.706 995.618 289.518 994.86 289.138C994.103 288.759 990.383 286.928 989.688 286.676C988.995 286.424 988.491 286.296 987.984 287.055C987.48 287.812 986.028 289.518 985.588 290.022C985.147 290.526 984.704 290.59 983.948 290.211C983.191 289.831 980.752 289.034 977.861 286.454C975.613 284.448 974.092 281.97 973.652 281.211C973.211 280.455 973.606 280.045 973.983 279.668C974.324 279.329 974.739 278.784 975.119 278.341C975.503 277.903 975.628 277.587 975.883 277.08C976.135 276.576 976.01 276.133 975.819 275.754C975.628 275.377 974.115 271.651 973.486 270.136C972.87 268.661 972.246 268.86 971.783 268.837L970.331 268.812C969.827 268.812 969.007 269 968.314 269.759C967.622 270.518 965.666 272.346 965.666 276.072C965.666 279.798 968.378 283.396 968.755 283.9C969.134 284.404 974.09 292.049 981.681 295.327C983.487 296.106 984.897 296.572 985.995 296.921C987.808 297.496 989.458 297.415 990.762 297.221C992.216 297.005 995.239 295.39 995.871 293.623C996.502 291.853 996.502 290.338 996.311 290.022Z" fill="white"/>
<rect x="0.5" y="221.5" width="123.145" height="123.145" rx="61.5726" fill="#303031" stroke="#484848"/>
<g clip-path="url(#clip2_6001_4013)">
<path d="M62.0725 258.017C70.2374 258.017 71.2043 258.052 74.4154 258.196C77.3996 258.327 79.0111 258.828 80.0855 259.246C81.506 259.795 82.5325 260.464 83.5949 261.526C84.6693 262.6 85.3258 263.615 85.8749 265.036C86.2927 266.11 86.7941 267.733 86.9254 270.706C87.0686 273.929 87.1044 274.896 87.1044 283.049C87.1044 291.214 87.0686 292.18 86.9254 295.391C86.7941 298.376 86.2927 299.987 85.8749 301.062C85.3258 302.482 84.6573 303.509 83.5949 304.571C82.5206 305.645 81.506 306.302 80.0855 306.851C79.0111 307.269 77.3877 307.77 74.4154 307.901C71.1924 308.045 70.2255 308.081 62.0725 308.081C53.9075 308.081 52.9406 308.045 49.7296 307.901C46.7453 307.77 45.1338 307.269 44.0595 306.851C42.639 306.302 41.6124 305.633 40.55 304.571C39.4757 303.497 38.8191 302.482 38.27 301.062C37.8522 299.987 37.3509 298.364 37.2196 295.391C37.0763 292.168 37.0405 291.202 37.0405 283.049C37.0405 274.884 37.0763 273.917 37.2196 270.706C37.3509 267.721 37.8522 266.11 38.27 265.036C38.8191 263.615 39.4876 262.589 40.55 261.526C41.6243 260.452 42.639 259.795 44.0595 259.246C45.1338 258.828 46.7573 258.327 49.7296 258.196C52.9406 258.052 53.9075 258.017 62.0725 258.017ZM62.0725 252.514C53.7762 252.514 52.7377 252.549 49.4789 252.693C46.232 252.836 43.9998 253.361 42.066 254.113C40.0486 254.901 38.3417 255.94 36.6466 257.647C34.9396 259.342 33.9011 261.049 33.1132 263.054C32.3612 265 31.836 267.22 31.6927 270.467C31.5495 273.738 31.5137 274.776 31.5137 283.072C31.5137 291.369 31.5495 292.407 31.6927 295.666C31.836 298.913 32.3612 301.145 33.1132 303.079C33.9011 305.096 34.9396 306.803 36.6466 308.498C38.3417 310.193 40.0487 311.244 42.0541 312.02C43.9998 312.772 46.2201 313.297 49.467 313.44C52.7258 313.584 53.7643 313.619 62.0605 313.619C70.3568 313.619 71.3953 313.584 74.6541 313.44C77.901 313.297 80.1332 312.772 82.067 312.02C84.0724 311.244 85.7794 310.193 87.4745 308.498C89.1695 306.803 90.22 305.096 90.9959 303.091C91.7479 301.145 92.2732 298.925 92.4164 295.678C92.5597 292.419 92.5955 291.381 92.5955 283.084C92.5955 274.788 92.5597 273.75 92.4164 270.491C92.2732 267.244 91.7479 265.012 90.9959 263.078C90.2439 261.049 89.2054 259.342 87.4984 257.647C85.8033 255.952 84.0963 254.901 82.0909 254.125C80.1451 253.373 77.9249 252.848 74.678 252.705C71.4072 252.549 70.3687 252.514 62.0725 252.514Z" fill="white"/>
<path d="M62.0722 267.375C53.4059 267.375 46.375 274.406 46.375 283.072C46.375 291.738 53.4059 298.769 62.0722 298.769C70.7385 298.769 77.7694 291.738 77.7694 283.072C77.7694 274.406 70.7385 267.375 62.0722 267.375ZM62.0722 293.254C56.4499 293.254 51.8899 288.695 51.8899 283.072C51.8899 277.45 56.4499 272.89 62.0722 272.89C67.6945 272.89 72.2545 277.45 72.2545 283.072C72.2545 288.695 67.6945 293.254 62.0722 293.254Z" fill="white"/>
<path d="M82.0559 266.755C82.0559 268.784 80.4086 270.419 78.3912 270.419C76.3619 270.419 74.7266 268.772 74.7266 266.755C74.7266 264.725 76.3739 263.09 78.3912 263.09C80.4086 263.09 82.0559 264.737 82.0559 266.755Z" fill="white"/>
</g>
<rect x="739.5" y="221.5" width="123.145" height="123.145" rx="61.5726" fill="#3F3F40" stroke="#646464"/>
<g clip-path="url(#clip3_6001_4013)">
<path fill-rule="evenodd" clip-rule="evenodd" d="M831.631 283.072C831.631 299.95 817.95 313.631 801.072 313.631C784.195 313.631 770.514 299.95 770.514 283.072C770.514 266.195 784.195 252.514 801.072 252.514C817.95 252.514 831.631 266.195 831.631 283.072ZM802.168 275.074C799.195 276.31 793.255 278.869 784.346 282.75C782.9 283.325 782.142 283.888 782.073 284.438C781.956 285.368 783.121 285.734 784.707 286.233C784.923 286.301 785.146 286.371 785.375 286.446C786.936 286.953 789.034 287.546 790.126 287.57C791.115 287.591 792.22 287.183 793.439 286.346C801.763 280.727 806.06 277.887 806.329 277.826C806.52 277.783 806.783 277.728 806.962 277.887C807.141 278.046 807.123 278.347 807.104 278.428C806.989 278.919 802.417 283.169 800.052 285.369C799.314 286.055 798.791 286.541 798.684 286.652C798.444 286.901 798.2 287.136 797.966 287.362C796.516 288.76 795.429 289.808 798.026 291.519C799.274 292.341 800.272 293.021 801.268 293.7C802.356 294.441 803.442 295.18 804.845 296.1C805.203 296.334 805.545 296.578 805.878 296.815C807.144 297.718 808.281 298.529 809.686 298.399C810.503 298.324 811.346 297.556 811.775 295.266C812.787 289.854 814.777 278.128 815.237 273.296C815.277 272.873 815.227 272.331 815.186 272.093C815.145 271.855 815.06 271.516 814.751 271.266C814.385 270.968 813.82 270.906 813.567 270.91C812.417 270.931 810.654 271.544 802.168 275.074Z" fill="white"/>
</g>
<defs>
<filter id="filter0_d_6001_4013" x="-707.854" y="8.21877" width="1550.34" height="2841.97" filterUnits="userSpaceOnUse" color-interpolation-filters="sRGB">
<feFlood flood-opacity="0" result="BackgroundImageFix"/>
<feColorMatrix in="SourceAlpha" type="matrix" values="0 0 0 0 0 0 0 0 0 0 0 0 0 0 0 0 0 0 127 0" result="hardAlpha"/>
<feOffset dy="50.6557"/>
<feGaussianBlur stdDeviation="97.09"/>
<feComposite in2="hardAlpha" operator="out"/>
<feColorMatrix type="matrix" values="0 0 0 0 0.239812 0 0 0 0 0.0807997 0 0 0 0 0.594531 0 0 0 1 0"/>
<feBlend mode="normal" in2="BackgroundImageFix" result="effect1_dropShadow_6001_4013"/>
<feBlend mode="normal" in="SourceGraphic" in2="effect1_dropShadow_6001_4013" result="shape"/>
</filter>
<linearGradient id="paint0_linear_6001_4013" x1="521.663" y1="0" x2="521.663" y2="557.698" gradientUnits="userSpaceOnUse">
<stop stop-color="#333333"/>
<stop offset="1" stop-color="#1C1C1C"/>
</linearGradient>
<linearGradient id="paint1_linear_6001_4013" x1="290.946" y1="405.021" x2="565.573" y2="176.858" gradientUnits="userSpaceOnUse">
<stop/>
<stop offset="0.4096" stop-color="#7835FF"/>
<stop offset="0.65625" stop-color="#ED93FF"/>
<stop offset="0.926696" stop-color="#B5B6E8"/>
</linearGradient>
<clipPath id="clip0_6001_4013">
<rect width="147.042" height="182.535" fill="white" transform="translate(446.035 174.45)"/>
</clipPath>
<clipPath id="clip1_6001_4013">
<rect width="61.1176" height="61.1176" fill="white" transform="translate(212.514 252.514)"/>
</clipPath>
<clipPath id="clip2_6001_4013">
<rect width="61.1176" height="61.1176" fill="white" transform="translate(31.5137 252.514)"/>
</clipPath>
<clipPath id="clip3_6001_4013">
<rect width="61.1176" height="61.1176" fill="white" transform="translate(770.514 252.514)"/>
</clipPath>
</defs>
</svg>
